<svg xmlns="http://www.w3.org/2000/svg" width="24" height="24" viewBox="0 0 24 24" fill="none">
  <g clip-path="url(#clip0_1797_39840)">
    <path d="M3.3328 7.77441C2.91929 7.77441 2.56845 7.91862 2.28005 8.20703C1.99165 8.49544 1.84741 8.84152 1.84741 9.24545V15.4473C1.84741 15.8614 1.99161 16.2119 2.28005 16.5004C2.56845 16.7888 2.91929 16.933 3.3328 16.933C3.746 16.933 4.09471 16.7888 4.37864 16.5004C4.662 16.212 4.80408 15.8614 4.80408 15.4473V9.24545C4.80408 8.84148 4.65988 8.49544 4.37144 8.20703C4.08299 7.91862 3.73671 7.77441 3.3328 7.77441Z" fill="white" fill-opacity="1"/>
    <path d="M15.2759 2.20605L16.2999 0.316943C16.3671 0.191876 16.3432 0.0959711 16.228 0.0285339C16.1029 -0.0296165 16.0068 -0.000150751 15.9396 0.114848L14.9012 2.01906C13.9876 1.61509 13.0212 1.41273 12.0022 1.41273C10.983 1.41273 10.0165 1.61513 9.10321 2.01906L8.06483 0.114848C7.99736 -0.000150751 7.90124 -0.0293562 7.77644 0.0285339C7.66092 0.0962749 7.63701 0.191876 7.70449 0.316943L8.72855 2.20605C7.69017 2.73561 6.86316 3.47312 6.24783 4.4202C5.6325 5.36779 5.32471 6.4033 5.32471 7.52856H18.6652C18.6652 6.40356 18.3574 5.36801 17.7421 4.4202C17.1267 3.47312 16.3045 2.73561 15.2759 2.20605ZM9.35551 4.95379C9.24477 5.0648 9.1125 5.12004 8.95875 5.12004C8.8047 5.12004 8.67513 5.0648 8.56942 4.95379C8.46371 4.84331 8.41086 4.71156 8.41086 4.55728C8.41086 4.40353 8.46371 4.27152 8.56942 4.16078C8.67513 4.05029 8.80501 3.99505 8.95875 3.99505C9.1125 3.99505 9.24477 4.05029 9.35551 4.16078C9.46599 4.27178 9.52149 4.40353 9.52149 4.55728C9.52119 4.7113 9.46573 4.84331 9.35551 4.95379ZM15.4344 4.95379C15.3285 5.0648 15.1986 5.12004 15.0451 5.12004C14.891 5.12004 14.7588 5.0648 14.6483 4.95379C14.5376 4.84331 14.4824 4.71156 14.4824 4.55728C14.4824 4.40353 14.5376 4.27152 14.6483 4.16078C14.7588 4.05029 14.891 3.99505 15.0451 3.99505C15.1989 3.99505 15.3285 4.05029 15.4344 4.16078C15.5402 4.27178 15.593 4.40353 15.593 4.55728C15.593 4.7113 15.5402 4.84331 15.4344 4.95379Z" fill="white" fill-opacity="1"/>
    <path d="M5.38232 17.653C5.38232 18.0957 5.53607 18.4705 5.8436 18.778C6.1514 19.0856 6.52615 19.2393 6.96856 19.2393H8.03588L8.0505 22.5137C8.0505 22.9272 8.1947 23.2783 8.4831 23.5667C8.7715 23.8552 9.11783 23.9994 9.52148 23.9994C9.93472 23.9994 10.2858 23.8552 10.5742 23.5667C10.8627 23.2783 11.0069 22.9272 11.0069 22.5137V19.2396H12.9971V22.5137C12.9971 22.9272 13.1413 23.2783 13.4297 23.5667C13.7181 23.8552 14.0689 23.9994 14.4824 23.9994C14.8957 23.9994 15.2467 23.8552 15.5352 23.5667C15.8236 23.2783 15.9678 22.9272 15.9678 22.5137V19.2396H17.0495C17.4821 19.2396 17.852 19.0858 18.1601 18.7783C18.4676 18.4707 18.6215 18.096 18.6215 17.6533V8.04712H5.38232V17.653Z" fill="white" fill-opacity="1"/>
    <path d="M20.669 7.77441C20.2651 7.77441 19.919 7.91649 19.6306 8.19987C19.3422 8.48376 19.198 8.83249 19.198 9.24545V15.4473C19.198 15.8614 19.3422 16.2119 19.6306 16.5004C19.919 16.7888 20.2653 16.933 20.669 16.933C21.0823 16.933 21.4333 16.7888 21.7218 16.5004C22.0102 16.2119 22.1544 15.8614 22.1544 15.4473V9.24545C22.1544 8.83245 22.0102 8.48376 21.7218 8.19987C21.4333 7.91649 21.0823 7.77441 20.669 7.77441Z" fill="white" fill-opacity="1"/>
  </g>
  <defs>
    <clipPath id="clip0_1797_39840">
      <rect width="23.9991" height="24" fill="white" transform="translate(0 -0.000732422)"/>
    </clipPath>
  </defs>
</svg>