<?xml version="1.0" encoding="UTF-8"?>
<!DOCTYPE svg PUBLIC "-//W3C//DTD SVG 1.1//EN" "http://www.w3.org/Graphics/SVG/1.1/DTD/svg11.dtd">
<svg xmlns="http://www.w3.org/2000/svg" version="1.1" width="512px" height="512px" style="shape-rendering:geometricPrecision; text-rendering:geometricPrecision; image-rendering:optimizeQuality; fill-rule:evenodd; clip-rule:evenodd" xmlns:xlink="http://www.w3.org/1999/xlink">
<g><path style="opacity:0.166" fill="#000000" d="M 177.5,-0.5 C 242.5,-0.5 307.5,-0.5 372.5,-0.5C 399.991,14.4872 410.824,37.4872 405,68.5C 403.465,84.5143 401.799,100.514 400,116.5C 394.277,141.635 379.777,159.635 356.5,170.5C 356.326,167.126 355.826,163.793 355,160.5C 343.58,161.93 332.08,163.097 320.5,164C 312.341,164.937 308.674,169.603 309.5,178C 310.161,180.464 310.661,182.964 311,185.5C 311.5,187.333 312.667,188.5 314.5,189C 324.5,190.333 334.5,191.667 344.5,193C 348.263,193.92 351.763,195.42 355,197.5C 355.662,195.187 356.162,192.854 356.5,190.5C 382.176,209.994 391.842,235.828 385.5,268C 390.062,292.378 384.896,314.211 370,333.5C 365.886,337.461 361.386,340.794 356.5,343.5C 356.229,341.688 355.562,340.022 354.5,338.5C 342.869,342.59 330.869,344.757 318.5,345C 313.498,345.079 310.665,347.579 310,352.5C 308.78,399.485 307.78,446.485 307,493.5C 306.668,496.506 305.834,499.34 304.5,502C 306.594,503.352 308.927,503.852 311.5,503.5C 310.18,506.14 308.847,508.807 307.5,511.5C 253.167,511.5 198.833,511.5 144.5,511.5C 144.162,509.146 143.662,506.813 143,504.5C 142.333,351.167 142.333,197.833 143,44.5C 144.713,35.0814 148.546,26.748 154.5,19.5C 154.167,180.668 154.5,341.668 155.5,502.5C 157.953,503.645 160.287,503.312 162.5,501.5C 176.38,499.273 190.046,496.607 203.5,493.5C 207.79,493.802 211.79,493.136 215.5,491.5C 231.961,488.96 248.294,485.96 264.5,482.5C 265.499,422.002 265.832,361.336 265.5,300.5C 287.673,300.831 309.673,300.497 331.5,299.5C 332.498,265.004 332.832,230.337 332.5,195.5C 317.167,195.5 301.833,195.5 286.5,195.5C 278.833,195.5 271.167,195.5 263.5,195.5C 263.5,169.833 263.5,144.167 263.5,118.5C 290.672,118.831 317.672,118.498 344.5,117.5C 345.486,113.03 345.819,108.363 345.5,103.5C 346.889,98.7312 347.556,93.7312 347.5,88.5C 347.5,86.8333 347.5,85.1667 347.5,83.5C 348.895,79.4091 349.562,75.0758 349.5,70.5C 349.5,68.5 349.5,66.5 349.5,64.5C 351.155,55.7154 352.155,46.7154 352.5,37.5C 352.646,33.4809 352.979,29.4809 353.5,25.5C 355.512,19.4986 355.845,13.3319 354.5,7C 292.168,6.5 229.834,6.33334 167.5,6.5C 170.833,4.16667 174.167,1.83333 177.5,-0.5 Z"/></g>
<g><path style="opacity:0.25" fill="#a3b2b8" d="M 167.5,6.5 C 229.834,6.33334 292.168,6.5 354.5,7C 355.845,13.3319 355.512,19.4986 353.5,25.5C 354.032,19.8477 354.365,14.181 354.5,8.5C 288.5,8.5 222.5,8.5 156.5,8.5C 156.5,9.5 156.5,10.5 156.5,11.5C 155.5,174.999 155.167,338.666 155.5,502.5C 154.5,341.668 154.167,180.668 154.5,19.5C 151.833,8.16667 156.167,3.83333 167.5,6.5 Z"/></g>
<g><path style="opacity:1" fill="#fefefe" d="M 353.5,25.5 C 352.979,29.4809 352.646,33.4809 352.5,37.5C 350.047,46.1995 349.047,55.1995 349.5,64.5C 349.5,66.5 349.5,68.5 349.5,70.5C 348.105,74.5909 347.438,78.9242 347.5,83.5C 347.5,85.1667 347.5,86.8333 347.5,88.5C 345.969,93.2502 345.302,98.2502 345.5,103.5C 345.819,108.363 345.486,113.03 344.5,117.5C 317.167,117.5 289.833,117.5 262.5,117.5C 262.5,143.833 262.5,170.167 262.5,196.5C 270.684,196.826 278.684,196.492 286.5,195.5C 301.833,195.5 317.167,195.5 332.5,195.5C 332.832,230.337 332.498,265.004 331.5,299.5C 309.167,299.5 286.833,299.5 264.5,299.5C 264.5,360.5 264.5,421.5 264.5,482.5C 248.294,485.96 231.961,488.96 215.5,491.5C 211.183,491.083 207.183,491.75 203.5,493.5C 190.046,496.607 176.38,499.273 162.5,501.5C 160.5,501.5 158.5,501.5 156.5,501.5C 156.5,338.167 156.5,174.833 156.5,11.5C 156.5,10.5 156.5,9.5 156.5,8.5C 222.5,8.5 288.5,8.5 354.5,8.5C 354.365,14.181 354.032,19.8477 353.5,25.5 Z"/></g>
<g><path style="opacity:0.886" fill="#b4bec1" d="M 352.5,37.5 C 352.155,46.7154 351.155,55.7154 349.5,64.5C 349.047,55.1995 350.047,46.1995 352.5,37.5 Z"/></g>
<g><path style="opacity:0.639" fill="#8b969a" d="M 349.5,70.5 C 349.562,75.0758 348.895,79.4091 347.5,83.5C 347.438,78.9242 348.105,74.5909 349.5,70.5 Z"/></g>
<g><path style="opacity:0.714" fill="#9ca7ab" d="M 347.5,88.5 C 347.556,93.7312 346.889,98.7312 345.5,103.5C 345.302,98.2502 345.969,93.2502 347.5,88.5 Z"/></g>
<g><path style="opacity:0.646" fill="#95a0a4" d="M 344.5,117.5 C 317.672,118.498 290.672,118.831 263.5,118.5C 263.5,144.167 263.5,169.833 263.5,195.5C 271.167,195.5 278.833,195.5 286.5,195.5C 278.684,196.492 270.684,196.826 262.5,196.5C 262.5,170.167 262.5,143.833 262.5,117.5C 289.833,117.5 317.167,117.5 344.5,117.5 Z"/></g>
<g><path style="opacity:0.004" fill="#02070b" d="M 356.5,170.5 C 351.694,175.419 350.527,181.085 353,187.5C 354.145,188.636 355.312,189.636 356.5,190.5C 356.162,192.854 355.662,195.187 355,197.5C 351.763,195.42 348.263,193.92 344.5,193C 334.5,191.667 324.5,190.333 314.5,189C 312.667,188.5 311.5,187.333 311,185.5C 310.661,182.964 310.161,180.464 309.5,178C 308.674,169.603 312.341,164.937 320.5,164C 332.08,163.097 343.58,161.93 355,160.5C 355.826,163.793 356.326,167.126 356.5,170.5 Z"/></g>
<g><path style="opacity:0.492" fill="#2a2f31" d="M 331.5,299.5 C 309.673,300.497 287.673,300.831 265.5,300.5C 265.832,361.336 265.499,422.002 264.5,482.5C 264.5,421.5 264.5,360.5 264.5,299.5C 286.833,299.5 309.167,299.5 331.5,299.5 Z"/></g>
<g><path style="opacity:0.416" fill="#ddecef" d="M 156.5,11.5 C 156.5,174.833 156.5,338.167 156.5,501.5C 158.5,501.5 160.5,501.5 162.5,501.5C 160.287,503.312 157.953,503.645 155.5,502.5C 155.167,338.666 155.5,174.999 156.5,11.5 Z"/></g>
<g><path style="opacity:0.004" fill="#020a0d" d="M 356.5,343.5 C 350.23,347.308 343.897,351.141 337.5,355C 333,359.5 328.5,364 324,368.5C 322.139,370.888 320.806,373.554 320,376.5C 318.914,414.135 317.914,451.801 317,489.5C 316.024,494.612 314.191,499.278 311.5,503.5C 308.927,503.852 306.594,503.352 304.5,502C 305.834,499.34 306.668,496.506 307,493.5C 307.78,446.485 308.78,399.485 310,352.5C 310.665,347.579 313.498,345.079 318.5,345C 330.869,344.757 342.869,342.59 354.5,338.5C 355.562,340.022 356.229,341.688 356.5,343.5 Z"/></g>
<g><path style="opacity:0.973" fill="#afbbbe" d="M 215.5,491.5 C 211.79,493.136 207.79,493.802 203.5,493.5C 207.183,491.75 211.183,491.083 215.5,491.5 Z"/></g>
</svg>
