<?xml version="1.0" encoding="UTF-8"?>
<!DOCTYPE svg PUBLIC "-//W3C//DTD SVG 1.1//EN" "http://www.w3.org/Graphics/SVG/1.1/DTD/svg11.dtd">
<svg xmlns="http://www.w3.org/2000/svg" version="1.1" width="1778px" height="420px" style="shape-rendering:geometricPrecision; text-rendering:geometricPrecision; image-rendering:optimizeQuality; fill-rule:evenodd; clip-rule:evenodd" xmlns:xlink="http://www.w3.org/1999/xlink">
<g><path style="opacity:0" fill="rgb(110, 110, 110)" d="M 7.5,-0.5 C 595.5,-0.5 1183.5,-0.5 1771.5,-0.5C 1773.1,12.072 1774.27,24.7386 1775,37.5C 1775.94,69.9929 1776.77,102.326 1777.5,134.5C 1777.5,171.167 1777.5,207.833 1777.5,244.5C 1776.65,281.003 1775.82,317.67 1775,354.5C 1774.21,376.281 1772.38,397.948 1769.5,419.5C 1182.5,419.5 595.5,419.5 8.5,419.5C 3.15056,363.477 0.150564,307.477 -0.5,251.5C -0.5,221.167 -0.5,190.833 -0.5,160.5C 0.259444,106.892 2.92611,53.2249 7.5,-0.5 Z"/></g>
<g><path style="opacity:1" fill="rgb(110, 110, 110)" d="M 375.5,98.5 C 374.596,99.209 374.263,100.209 374.5,101.5C 354.326,101.17 334.326,101.503 314.5,102.5C 313.503,122.326 313.17,142.326 313.5,162.5C 331.167,162.5 348.833,162.5 366.5,162.5C 366.5,170.5 366.5,178.5 366.5,186.5C 365.995,204.496 365.661,222.496 365.5,240.5C 348.5,240.5 331.5,240.5 314.5,240.5C 313.501,285.33 313.168,330.33 313.5,375.5C 311.102,375.259 309.102,375.926 307.5,377.5C 305.139,377.674 302.806,378.007 300.5,378.5C 296.491,378.858 292.491,379.358 288.5,380C 287.944,380.383 287.611,380.883 287.5,381.5C 286.5,381.5 285.5,381.5 284.5,381.5C 278.903,381.77 273.57,382.77 268.5,384.5C 262.903,384.77 257.57,385.77 252.5,387.5C 246.903,387.77 241.57,388.77 236.5,390.5C 235.5,390.5 234.5,390.5 233.5,390.5C 233.5,267.833 233.5,145.167 233.5,22.5C 283.167,22.5 332.833,22.5 382.5,22.5C 379.902,47.8106 377.568,73.144 375.5,98.5 Z"/></g>
<g><path style="opacity:1" fill="rgb(110, 110, 110)" d="M 1510.5,117.5 C 1504.5,117.5 1498.5,117.5 1492.5,117.5C 1492.5,134.167 1492.5,150.833 1492.5,167.5C 1509.17,167.5 1525.83,167.5 1542.5,167.5C 1542.5,191.167 1542.5,214.833 1542.5,238.5C 1526.5,238.5 1510.5,238.5 1494.5,238.5C 1493.5,258.993 1493.17,279.66 1493.5,300.5C 1512.83,300.5 1532.17,300.5 1551.5,300.5C 1551.5,327.5 1551.5,354.5 1551.5,381.5C 1534.22,379.647 1516.89,378.647 1499.5,378.5C 1498.5,378.5 1497.5,378.5 1496.5,378.5C 1484.77,376.042 1472.77,375.042 1460.5,375.5C 1448.37,373.845 1436.03,372.845 1423.5,372.5C 1421.05,371.527 1418.39,371.194 1415.5,371.5C 1415.5,260.833 1415.5,150.167 1415.5,39.5C 1416.79,39.7373 1417.79,39.404 1418.5,38.5C 1423.35,38.1873 1428.02,37.5206 1432.5,36.5C 1436.5,36.5 1440.5,36.5 1444.5,36.5C 1453.05,36.1439 1461.38,35.1439 1469.5,33.5C 1476.17,33.2871 1482.84,32.9538 1489.5,32.5C 1495.4,32.6787 1501.07,32.0121 1506.5,30.5C 1521.51,29.653 1536.51,28.653 1551.5,27.5C 1551.5,57.1667 1551.5,86.8333 1551.5,116.5C 1537.83,116.865 1524.17,117.198 1510.5,117.5 Z"/></g>
<g><path style="opacity:0.718" fill="rgb(110, 110, 110)" d="M 1506.5,30.5 C 1501.07,32.0121 1495.4,32.6787 1489.5,32.5C 1494.93,30.9879 1500.6,30.3213 1506.5,30.5 Z"/></g>
<g><path style="opacity:0.659" fill="rgb(110, 110, 110)" d="M 1469.5,33.5 C 1461.38,35.1439 1453.05,36.1439 1444.5,36.5C 1452.58,34.5636 1460.92,33.5636 1469.5,33.5 Z"/></g>
<g><path style="opacity:0.624" fill="rgb(110, 110, 110)" d="M 1432.5,36.5 C 1428.02,37.5206 1423.35,38.1873 1418.5,38.5C 1417.17,38.5 1415.83,38.5 1414.5,38.5C 1420.27,37.0543 1426.27,36.3877 1432.5,36.5 Z"/></g>
<g><path style="opacity:0.92" fill="rgb(110, 110, 110)" d="M 1414.5,38.5 C 1415.83,38.5 1417.17,38.5 1418.5,38.5C 1417.79,39.404 1416.79,39.7373 1415.5,39.5C 1415.5,150.167 1415.5,260.833 1415.5,371.5C 1418.39,371.194 1421.05,371.527 1423.5,372.5C 1421.5,372.5 1419.5,372.5 1417.5,372.5C 1416.5,372.5 1415.5,372.5 1414.5,372.5C 1414.5,261.167 1414.5,149.833 1414.5,38.5 Z"/></g>
<g><path style="opacity:1" fill="rgb(110, 110, 110)" d="M 1091.5,352.5 C 1085.6,352.321 1079.93,352.988 1074.5,354.5C 1072.14,354.663 1069.81,354.497 1067.5,354C 1049.69,311.547 1032.02,269.047 1014.5,226.5C 1014.29,225.078 1013.79,223.745 1013,222.5C 1012.19,226.027 1012.36,229.36 1013.5,232.5C 1014.37,265.504 1015.37,298.504 1016.5,331.5C 1016.5,335.5 1016.5,339.5 1016.5,343.5C 992.5,343.5 968.5,343.5 944.5,343.5C 944.5,247.5 944.5,151.5 944.5,55.5C 959.527,52.6279 974.527,49.6279 989.5,46.5C 992.152,46.5905 994.485,45.9238 996.5,44.5C 999.709,44.5893 1002.88,44.256 1006,43.5C 1008.21,43.9112 1009.55,45.2446 1010,47.5C 1027.6,91.4841 1045.1,135.484 1062.5,179.5C 1062.99,180.473 1063.49,181.473 1064,182.5C 1064.8,179.633 1064.63,176.966 1063.5,174.5C 1060.17,129.498 1056.83,84.4978 1053.5,39.5C 1078.17,39.5 1102.83,39.5 1127.5,39.5C 1128.35,142.832 1129.02,246.165 1129.5,349.5C 1116.82,350.334 1104.16,351.334 1091.5,352.5 Z"/></g>
<g><path style="opacity:1" fill="rgb(110, 110, 110)" d="M 486.5,44.5 C 492.682,46.0096 499.015,47.3429 505.5,48.5C 532.522,58.3573 550.688,77.024 560,104.5C 565.581,121.405 569.248,138.738 571,156.5C 574.425,197.121 572.425,237.454 565,277.5C 560.48,296.204 552.48,313.204 541,328.5C 529.011,341.911 514.178,350.244 496.5,353.5C 483.52,354.354 470.52,354.687 457.5,354.5C 456.833,354.5 456.167,354.5 455.5,354.5C 453.485,353.076 451.152,352.41 448.5,352.5C 426.932,346.769 410.765,334.102 400,314.5C 388.82,292.113 382.153,268.446 380,243.5C 378.064,213.494 378.064,183.494 380,153.5C 382.013,129.131 388.679,106.131 400,84.5C 414.47,60.7187 435.637,47.5521 463.5,45C 471.159,44.5003 478.826,44.3336 486.5,44.5 Z"/></g>
<g><path style="opacity:1" fill="rgb(110, 110, 110)" d="M 695.5,46.5 C 697.515,47.9238 699.848,48.5905 702.5,48.5C 734.864,62.054 755.364,86.054 764,120.5C 771.142,151.559 767.476,181.226 753,209.5C 747.562,217.937 741.062,225.437 733.5,232C 747.208,272.624 760.208,313.457 772.5,354.5C 756.796,355.003 741.129,356.003 725.5,357.5C 714.808,357.799 704.142,358.466 693.5,359.5C 683.443,324.826 673.276,290.159 663,255.5C 661.462,286.817 660.296,318.151 659.5,349.5C 634.167,349.5 608.833,349.5 583.5,349.5C 583.5,248.167 583.5,146.833 583.5,45.5C 620.853,45.198 658.187,45.5313 695.5,46.5 Z"/></g>
<g><path style="opacity:0.286" fill="rgb(110, 110, 110)" d="M 769.5,46.5 C 775.319,45.3475 781.319,45.1808 787.5,46C 788.416,46.2784 789.082,46.7784 789.5,47.5C 783.171,47.1005 776.838,46.7671 770.5,46.5C 770.167,46.5 769.833,46.5 769.5,46.5 Z"/></g>
<g><path style="opacity:0.651" fill="rgb(110, 110, 110)" d="M 996.5,44.5 C 994.485,45.9238 992.152,46.5905 989.5,46.5C 991.515,45.0762 993.848,44.4095 996.5,44.5 Z"/></g>
<g><path style="opacity:0.4" fill="rgb(110, 110, 110)" d="M 486.5,44.5 C 493.247,44.4526 499.58,45.786 505.5,48.5C 499.015,47.3429 492.682,46.0096 486.5,44.5 Z"/></g>
<g><path style="opacity:0" fill="rgb(110, 110, 110)" d="M 695.5,46.5 C 698.152,46.4095 700.485,47.0762 702.5,48.5C 699.848,48.5905 697.515,47.9238 695.5,46.5 Z"/></g>
<g><path style="opacity:0.875" fill="rgb(110, 110, 110)" d="M 769.5,46.5 C 769.833,46.5 770.167,46.5 770.5,46.5C 770.5,71.8333 770.5,97.1667 770.5,122.5C 784.344,122.171 798.01,122.504 811.5,123.5C 797.5,123.5 783.5,123.5 769.5,123.5C 769.5,97.8333 769.5,72.1667 769.5,46.5 Z"/></g>
<g><path style="opacity:1" fill="rgb(110, 110, 110)" d="M 770.5,46.5 C 776.838,46.7671 783.171,47.1005 789.5,47.5C 792.167,47.5 794.833,47.5 797.5,47.5C 803.274,48.9457 809.274,49.6123 815.5,49.5C 822.159,49.9538 828.826,50.2871 835.5,50.5C 840.598,51.9573 845.931,52.624 851.5,52.5C 853.5,52.5 855.5,52.5 857.5,52.5C 872.288,54.5336 887.288,55.867 902.5,56.5C 904.167,56.5 905.833,56.5 907.5,56.5C 914.309,57.6525 921.309,58.3192 928.5,58.5C 929.833,58.5 931.167,58.5 932.5,58.5C 934.477,84.2729 935.143,110.273 934.5,136.5C 920.167,136.5 905.833,136.5 891.5,136.5C 890.501,206.331 890.167,276.331 890.5,346.5C 864.5,346.5 838.5,346.5 812.5,346.5C 812.833,271.998 812.499,197.665 811.5,123.5C 798.01,122.504 784.344,122.171 770.5,122.5C 770.5,97.1667 770.5,71.8333 770.5,46.5 Z"/></g>
<g><path style="opacity:0.494" fill="rgb(110, 110, 110)" d="M 797.5,47.5 C 803.712,47.5234 809.712,48.1901 815.5,49.5C 809.274,49.6123 803.274,48.9457 797.5,47.5 Z"/></g>
<g><path style="opacity:0.545" fill="rgb(110, 110, 110)" d="M 835.5,50.5 C 841.084,50.2549 846.417,50.9216 851.5,52.5C 845.931,52.624 840.598,51.9573 835.5,50.5 Z"/></g>
<g><path style="opacity:0.318" fill="rgb(110, 110, 110)" d="M 857.5,52.5 C 872.71,53.1092 887.71,54.4426 902.5,56.5C 887.288,55.867 872.288,54.5336 857.5,52.5 Z"/></g>
<g><path style="opacity:1" fill="rgb(110, 110, 110)" d="M 1227.5,54.5 C 1227.5,155.5 1227.5,256.5 1227.5,357.5C 1200.5,357.5 1173.5,357.5 1146.5,357.5C 1146.5,256.5 1146.5,155.5 1146.5,54.5C 1173.5,54.5 1200.5,54.5 1227.5,54.5 Z"/></g>
<g><path style="opacity:0.333" fill="rgb(110, 110, 110)" d="M 907.5,56.5 C 912.844,56.334 918.177,56.5006 923.5,57C 925.382,57.1981 927.048,57.6981 928.5,58.5C 921.309,58.3192 914.309,57.6525 907.5,56.5 Z"/></g>
<g><path style="opacity:1" fill="rgb(110, 110, 110)" d="M 1404.5,60.5 C 1404.5,86.1667 1404.5,111.833 1404.5,137.5C 1389.32,137.171 1374.32,137.504 1359.5,138.5C 1359.5,214.833 1359.5,291.167 1359.5,367.5C 1333.17,367.5 1306.83,367.5 1280.5,367.5C 1280.5,294.167 1280.5,220.833 1280.5,147.5C 1266.34,146.504 1252.01,146.171 1237.5,146.5C 1237.5,120.833 1237.5,95.1667 1237.5,69.5C 1259.33,67.8587 1281.33,66.5253 1303.5,65.5C 1313.71,65.7123 1323.71,65.0457 1333.5,63.5C 1357.18,62.8851 1380.85,61.8851 1404.5,60.5 Z"/></g>
<g><path style="opacity:0.706" fill="rgb(110, 110, 110)" d="M 1333.5,63.5 C 1323.71,65.0457 1313.71,65.7123 1303.5,65.5C 1313.3,64.0206 1323.3,63.3539 1333.5,63.5 Z"/></g>
<g><path style="opacity:0.707" fill="rgb(110, 110, 110)" d="M 932.5,58.5 C 933.5,58.5 934.5,58.5 935.5,58.5C 935.5,84.8333 935.5,111.167 935.5,137.5C 920.833,137.5 906.167,137.5 891.5,137.5C 891.5,137.167 891.5,136.833 891.5,136.5C 905.833,136.5 920.167,136.5 934.5,136.5C 935.143,110.273 934.477,84.2729 932.5,58.5 Z"/></g>
<g><path style="opacity:0.739" fill="rgb(110, 110, 110)" d="M 375.5,98.5 C 375.5,99.8333 375.5,101.167 375.5,102.5C 355.167,102.5 334.833,102.5 314.5,102.5C 334.326,101.503 354.326,101.17 374.5,101.5C 374.263,100.209 374.596,99.209 375.5,98.5 Z"/></g>
<g><path style="opacity:1" fill="rgb(16, 16, 20)" d="M 472.5,108.5 C 476.526,108.677 479.359,110.677 481,114.5C 483.922,125.63 485.589,136.963 486,148.5C 486.667,182.167 486.667,215.833 486,249.5C 485.522,263.517 483.189,277.184 479,290.5C 474.261,294.978 470.928,293.978 469,287.5C 467.027,281.304 465.694,274.971 465,268.5C 461.683,221.833 461.683,175.167 465,128.5C 465.449,120.979 467.949,114.312 472.5,108.5 Z"/></g>
<g><path style="opacity:0.774" fill="rgb(110, 110, 110)" d="M 1227.5,54.5 C 1200.5,54.5 1173.5,54.5 1146.5,54.5C 1146.5,155.5 1146.5,256.5 1146.5,357.5C 1173.5,357.5 1200.5,357.5 1227.5,357.5C 1200.34,358.498 1173.01,358.831 1145.5,358.5C 1145.5,256.833 1145.5,155.167 1145.5,53.5C 1173.01,53.1688 1200.34,53.5021 1227.5,54.5 Z"/></g>
<g><path style="opacity:1" fill="rgb(16, 16, 20)" d="M 660.5,114.5 C 668.166,114.673 673.999,118.006 678,124.5C 682.839,133.026 685.006,142.193 684.5,152C 685.902,167.377 681.902,181.043 672.5,193C 669.013,195.995 665.013,197.828 660.5,198.5C 660.5,170.5 660.5,142.5 660.5,114.5 Z"/></g>
<g><path style="opacity:0.494" fill="rgb(110, 110, 110)" d="M 1510.5,117.5 C 1505.02,118.489 1499.36,118.822 1493.5,118.5C 1493.5,134.5 1493.5,150.5 1493.5,166.5C 1510.01,166.17 1526.34,166.504 1542.5,167.5C 1525.83,167.5 1509.17,167.5 1492.5,167.5C 1492.5,150.833 1492.5,134.167 1492.5,117.5C 1498.5,117.5 1504.5,117.5 1510.5,117.5 Z"/></g>
<g><path style="opacity:0.834" fill="rgb(110, 110, 110)" d="M 811.5,123.5 C 812.499,197.665 812.833,271.998 812.5,346.5C 838.5,346.5 864.5,346.5 890.5,346.5C 890.167,276.331 890.501,206.331 891.5,136.5C 891.5,136.833 891.5,137.167 891.5,137.5C 891.5,207.5 891.5,277.5 891.5,347.5C 864.833,347.5 838.167,347.5 811.5,347.5C 811.5,272.833 811.5,198.167 811.5,123.5 Z"/></g>
<g><path style="opacity:0.748" fill="rgb(110, 110, 110)" d="M 1404.5,60.5 C 1405.5,86.328 1405.83,112.328 1405.5,138.5C 1390.17,138.5 1374.83,138.5 1359.5,138.5C 1374.32,137.504 1389.32,137.171 1404.5,137.5C 1404.5,111.833 1404.5,86.1667 1404.5,60.5 Z"/></g>
<g><path style="opacity:0.678" fill="rgb(110, 110, 110)" d="M 1237.5,69.5 C 1237.5,95.1667 1237.5,120.833 1237.5,146.5C 1252.01,146.171 1266.34,146.504 1280.5,147.5C 1265.83,147.5 1251.17,147.5 1236.5,147.5C 1236.17,121.328 1236.5,95.328 1237.5,69.5 Z"/></g>
<g><path style="opacity:0.522" fill="rgb(110, 110, 110)" d="M 314.5,102.5 C 314.5,122.167 314.5,141.833 314.5,161.5C 332.167,161.5 349.833,161.5 367.5,161.5C 367.826,170.017 367.493,178.35 366.5,186.5C 366.5,178.5 366.5,170.5 366.5,162.5C 348.833,162.5 331.167,162.5 313.5,162.5C 313.17,142.326 313.503,122.326 314.5,102.5 Z"/></g>
<g><path style="opacity:0.675" fill="rgb(110, 110, 110)" d="M 1063.5,174.5 C 1064.63,176.966 1064.8,179.633 1064,182.5C 1063.49,181.473 1062.99,180.473 1062.5,179.5C 1063.45,178.081 1063.78,176.415 1063.5,174.5 Z"/></g>
<g><path style="opacity:0.549" fill="rgb(110, 110, 110)" d="M 1014.5,226.5 C 1013.54,228.265 1013.21,230.265 1013.5,232.5C 1012.36,229.36 1012.19,226.027 1013,222.5C 1013.79,223.745 1014.29,225.078 1014.5,226.5 Z"/></g>
<g><path style="opacity:0.503" fill="rgb(110, 110, 110)" d="M 1494.5,238.5 C 1494.5,258.833 1494.5,279.167 1494.5,299.5C 1513.67,299.17 1532.67,299.503 1551.5,300.5C 1532.17,300.5 1512.83,300.5 1493.5,300.5C 1493.17,279.66 1493.5,258.993 1494.5,238.5 Z"/></g>
<g><path style="opacity:0.703" fill="rgb(110, 110, 110)" d="M 314.5,240.5 C 314.5,285.833 314.5,331.167 314.5,376.5C 312.194,376.993 309.861,377.326 307.5,377.5C 309.102,375.926 311.102,375.259 313.5,375.5C 313.168,330.33 313.501,285.33 314.5,240.5 Z"/></g>
<g><path style="opacity:0.449" fill="rgb(110, 110, 110)" d="M 1016.5,331.5 C 1017.48,335.634 1017.82,339.968 1017.5,344.5C 992.994,344.831 968.661,344.498 944.5,343.5C 968.5,343.5 992.5,343.5 1016.5,343.5C 1016.5,339.5 1016.5,335.5 1016.5,331.5 Z"/></g>
<g><path style="opacity:0.675" fill="rgb(110, 110, 110)" d="M 448.5,352.5 C 451.152,352.41 453.485,353.076 455.5,354.5C 452.848,354.59 450.515,353.924 448.5,352.5 Z"/></g>
<g><path style="opacity:0.306" fill="rgb(110, 110, 110)" d="M 1091.5,352.5 C 1086.06,353.884 1080.39,354.55 1074.5,354.5C 1079.93,352.988 1085.6,352.321 1091.5,352.5 Z"/></g>
<g><path style="opacity:0.919" fill="rgb(110, 110, 110)" d="M 496.5,353.5 C 483.56,356.931 470.56,357.264 457.5,354.5C 470.52,354.687 483.52,354.354 496.5,353.5 Z"/></g>
<g><path style="opacity:0.494" fill="rgb(110, 110, 110)" d="M 725.5,357.5 C 716.836,358.667 708.002,359.667 699,360.5C 696.967,360.494 695.134,360.161 693.5,359.5C 704.142,358.466 714.808,357.799 725.5,357.5 Z"/></g>
<g><path style="opacity:0.851" fill="rgb(110, 110, 110)" d="M 1417.5,372.5 C 1419.5,372.5 1421.5,372.5 1423.5,372.5C 1436.03,372.845 1448.37,373.845 1460.5,375.5C 1445.96,375.355 1431.63,374.355 1417.5,372.5 Z"/></g>
<g><path style="opacity:0.825" fill="rgb(110, 110, 110)" d="M 1460.5,375.5 C 1472.77,375.042 1484.77,376.042 1496.5,378.5C 1484.31,378.059 1472.31,377.059 1460.5,375.5 Z"/></g>
<g><path style="opacity:0.478" fill="rgb(110, 110, 110)" d="M 300.5,378.5 C 296.382,379.955 292.049,380.955 287.5,381.5C 287.611,380.883 287.944,380.383 288.5,380C 292.491,379.358 296.491,378.858 300.5,378.5 Z"/></g>
<g><path style="opacity:0.888" fill="rgb(110, 110, 110)" d="M 1499.5,378.5 C 1516.89,378.647 1534.22,379.647 1551.5,381.5C 1550.55,382.152 1549.38,382.486 1548,382.5C 1531.66,381.465 1515.49,380.132 1499.5,378.5 Z"/></g>
<g><path style="opacity:0.494" fill="rgb(110, 110, 110)" d="M 284.5,381.5 C 279.453,383.306 274.12,384.306 268.5,384.5C 273.57,382.77 278.903,381.77 284.5,381.5 Z"/></g>
<g><path style="opacity:0.494" fill="rgb(110, 110, 110)" d="M 268.5,384.5 C 263.453,386.306 258.12,387.306 252.5,387.5C 257.57,385.77 262.903,384.77 268.5,384.5 Z"/></g>
<g><path style="opacity:0.49" fill="rgb(110, 110, 110)" d="M 252.5,387.5 C 247.453,389.306 242.12,390.306 236.5,390.5C 241.57,388.77 246.903,387.77 252.5,387.5 Z"/></g>
</svg>
