<?xml version="1.0" encoding="UTF-8"?>
<!DOCTYPE svg PUBLIC "-//W3C//DTD SVG 1.1//EN" "http://www.w3.org/Graphics/SVG/1.1/DTD/svg11.dtd">
<svg xmlns="http://www.w3.org/2000/svg" version="1.1" width="1255px" height="1272px" style="shape-rendering:geometricPrecision; text-rendering:geometricPrecision; image-rendering:optimizeQuality; fill-rule:evenodd; clip-rule:evenodd" xmlns:xlink="http://www.w3.org/1999/xlink">
<g><path style="opacity:0.999" fill="rgb(110, 110, 110)" d="M 209.5,104.5 C 487.834,104.333 766.167,104.5 1044.5,105C 1090.97,109.139 1114.13,134.639 1114,181.5C 1114.67,448.833 1114.67,716.167 1114,983.5C 1114.2,999.333 1110.86,1014.33 1104,1028.5C 1093.8,1041.2 1080.97,1050.37 1065.5,1056C 924.605,1114.95 783.605,1173.62 642.5,1232C 624.685,1235.64 607.685,1233.3 591.5,1225C 459.663,1169.28 327.663,1113.94 195.5,1059C 180.344,1053.84 166.844,1046.01 155,1035.5C 144.175,1020.68 139.175,1004.02 140,985.5C 139.333,716.5 139.333,447.5 140,178.5C 141.471,133.201 164.638,108.535 209.5,104.5 Z M 968.5,319.5 C 968.5,352.5 968.5,385.5 968.5,418.5C 947.167,418.5 925.833,418.5 904.5,418.5C 904.831,387.995 904.498,357.662 903.5,327.5C 902.755,318.503 898.089,312.67 889.5,310C 878.076,307.777 866.743,308.11 855.5,311C 852.405,311.935 850.071,313.769 848.5,316.5C 847.094,316.973 846.427,317.973 846.5,319.5C 845.207,320.842 844.374,322.509 844,324.5C 843.009,423.21 843.343,521.877 845,620.5C 848.931,628.555 855.431,632.722 864.5,633C 873.213,633.798 881.88,633.464 890.5,632C 898.858,629.64 903.691,624.14 905,615.5C 905.5,580.502 905.667,545.502 905.5,510.5C 926.833,510.5 948.167,510.5 969.5,510.5C 969.5,548.5 969.5,586.5 969.5,624.5C 968.098,640.382 962.764,654.715 953.5,667.5C 950.833,669.5 948.5,671.833 946.5,674.5C 936.366,681.94 925.032,686.774 912.5,689C 889.199,690.592 865.866,690.925 842.5,690C 801.807,685.305 780.307,662.472 778,621.5C 777.333,521.167 777.333,420.833 778,320.5C 779.564,282.81 798.731,260.31 835.5,253C 860.833,251 886.167,251 911.5,253C 941.229,257.397 959.396,274.231 966,303.5C 966.882,308.839 967.715,314.173 968.5,319.5 Z M 430.5,314.5 C 403.5,314.5 376.5,314.5 349.5,314.5C 349.5,355.167 349.5,395.833 349.5,436.5C 374.995,437.498 400.661,437.831 426.5,437.5C 426.5,457.167 426.5,476.833 426.5,496.5C 400.661,496.169 374.995,496.502 349.5,497.5C 349.5,540.833 349.5,584.167 349.5,627.5C 376.833,627.5 404.167,627.5 431.5,627.5C 431.5,647.5 431.5,667.5 431.5,687.5C 382.167,687.5 332.833,687.5 283.5,687.5C 283.5,543.167 283.5,398.833 283.5,254.5C 332.5,254.5 381.5,254.5 430.5,254.5C 430.5,274.5 430.5,294.5 430.5,314.5 Z M 618.5,267.5 C 618.973,268.906 619.973,269.573 621.5,269.5C 636.834,283.28 645.001,300.613 646,321.5C 646.667,368.833 646.667,416.167 646,463.5C 644.771,481.264 638.605,496.931 627.5,510.5C 625.251,511.08 623.585,512.413 622.5,514.5C 607.154,524.78 590.154,529.946 571.5,530C 557.504,530.5 543.504,530.667 529.5,530.5C 529.5,582.833 529.5,635.167 529.5,687.5C 507.5,687.5 485.5,687.5 463.5,687.5C 463.5,543.167 463.5,398.833 463.5,254.5C 503.852,254.08 544.186,254.58 584.5,256C 596.697,257.38 608.03,261.213 618.5,267.5 Z M 676.5,254.5 C 698.5,254.5 720.5,254.5 742.5,254.5C 742.5,398.833 742.5,543.167 742.5,687.5C 720.5,687.5 698.5,687.5 676.5,687.5C 676.5,543.167 676.5,398.833 676.5,254.5 Z M 342.5,790.5 C 365.563,788.175 385.896,794.342 403.5,809C 396.667,817.167 389.833,825.333 383,833.5C 367.585,820.136 350.752,817.969 332.5,827C 318.511,838.756 314.011,853.589 319,871.5C 328.662,892.577 344.829,900.077 367.5,894C 370.196,893.235 372.696,892.068 375,890.5C 375.499,884.843 375.666,879.176 375.5,873.5C 366.833,873.5 358.167,873.5 349.5,873.5C 349.5,864.833 349.5,856.167 349.5,847.5C 369.167,847.5 388.833,847.5 408.5,847.5C 408.667,866.836 408.5,886.17 408,905.5C 381.124,926.578 351.624,931.078 319.5,919C 295.508,906.383 282.841,886.383 281.5,859C 284.709,820.662 305.042,797.828 342.5,790.5 Z M 910.5,790.5 C 932.007,789.538 951.34,795.371 968.5,808C 962.279,815.888 956.445,824.055 951,832.5C 937.111,821.303 921.611,817.803 904.5,822C 900.568,826.737 900.568,831.404 904.5,836C 921.264,841.358 937.931,847.025 954.5,853C 969.462,862.448 974.962,875.948 971,893.5C 966.427,909.072 956.26,918.906 940.5,923C 915.781,928.183 892.447,924.516 870.5,912C 867.167,909.333 863.833,906.667 860.5,904C 867.059,896.365 873.726,888.865 880.5,881.5C 895.674,894.28 913.008,898.78 932.5,895C 938.183,890.583 938.849,885.583 934.5,880C 923.301,874.948 911.634,871.282 899.5,869C 867.929,859.355 859.096,839.522 873,809.5C 882.824,797.735 895.324,791.402 910.5,790.5 Z M 476.5,792.5 C 488.081,792.179 499.581,792.512 511,793.5C 529.171,836.684 547.338,879.85 565.5,923C 553.5,923.667 541.5,923.667 529.5,923C 526.038,915.24 522.704,907.406 519.5,899.5C 502.176,898.334 484.843,898.167 467.5,899C 464.443,907.115 461.109,915.115 457.5,923C 445.819,923.833 434.152,923.666 422.5,922.5C 440.704,879.212 458.704,835.878 476.5,792.5 Z M 617.5,793.5 C 627.807,810.149 638.14,826.816 648.5,843.5C 659.527,827.292 670.194,810.792 680.5,794C 692.829,793.5 705.162,793.333 717.5,793.5C 717.5,836.833 717.5,880.167 717.5,923.5C 706.167,923.5 694.833,923.5 683.5,923.5C 683.667,897.831 683.5,872.165 683,846.5C 682.283,847.044 681.783,847.711 681.5,848.5C 673.78,859.559 666.447,870.892 659.5,882.5C 658.094,882.973 657.427,883.973 657.5,885.5C 654.355,889.766 651.188,894.099 648,898.5C 647.722,897.584 647.222,896.918 646.5,896.5C 646.573,894.973 645.906,893.973 644.5,893.5C 642.554,889.561 640.221,885.894 637.5,882.5C 637.573,880.973 636.906,879.973 635.5,879.5C 632.996,874.485 629.996,869.819 626.5,865.5C 626.573,863.973 625.906,862.973 624.5,862.5C 621.587,857.071 618.42,851.737 615,846.5C 614.5,872.165 614.333,897.831 614.5,923.5C 603.167,923.5 591.833,923.5 580.5,923.5C 580.5,880.167 580.5,836.833 580.5,793.5C 592.833,793.5 605.167,793.5 617.5,793.5 Z M 847.5,793.5 C 847.5,803.167 847.5,812.833 847.5,822.5C 824.167,822.5 800.833,822.5 777.5,822.5C 777.187,829.755 777.52,836.921 778.5,844C 799.164,844.5 819.831,844.667 840.5,844.5C 840.5,853.5 840.5,862.5 840.5,871.5C 819.5,871.5 798.5,871.5 777.5,871.5C 777.175,879.019 777.508,886.352 778.5,893.5C 801.327,894.498 824.327,894.831 847.5,894.5C 847.5,904.167 847.5,913.833 847.5,923.5C 813.167,923.5 778.833,923.5 744.5,923.5C 744.5,880.167 744.5,836.833 744.5,793.5C 778.833,793.5 813.167,793.5 847.5,793.5 Z M 441.5,1079.5 C 565.833,1078.17 690.167,1078.17 814.5,1079.5C 750.805,1100.01 687.138,1120.68 623.5,1141.5C 562.878,1120.63 502.212,1099.96 441.5,1079.5 Z"/></g>
<g><path style="opacity:0.522" fill="rgb(110, 110, 110)" d="M 618.5,267.5 C 620.027,267.427 621.027,268.094 621.5,269.5C 619.973,269.573 618.973,268.906 618.5,267.5 Z"/></g>
<g><path style="opacity:0.996" fill="rgb(110, 110, 110)" d="M 529.5,312.5 C 542.219,312.102 554.886,312.602 567.5,314C 575.89,317.736 580.39,324.236 581,333.5C 581.667,372.833 581.667,412.167 581,451.5C 580.39,460.764 575.89,467.264 567.5,471C 554.886,472.398 542.219,472.898 529.5,472.5C 529.5,419.167 529.5,365.833 529.5,312.5 Z"/></g>
<g><path style="opacity:0.522" fill="rgb(110, 110, 110)" d="M 430.5,314.5 C 404.005,315.498 377.339,315.831 350.5,315.5C 350.5,355.833 350.5,396.167 350.5,436.5C 350.167,436.5 349.833,436.5 349.5,436.5C 349.5,395.833 349.5,355.167 349.5,314.5C 376.5,314.5 403.5,314.5 430.5,314.5 Z"/></g>
<g><path style="opacity:0.573" fill="rgb(110, 110, 110)" d="M 848.5,316.5 C 848.573,318.027 847.906,319.027 846.5,319.5C 846.427,317.973 847.094,316.973 848.5,316.5 Z"/></g>
<g><path style="opacity:0.086" fill="rgb(110, 110, 110)" d="M 968.5,319.5 C 969.498,352.662 969.832,385.996 969.5,419.5C 947.5,419.5 925.5,419.5 903.5,419.5C 903.5,388.833 903.5,358.167 903.5,327.5C 904.498,357.662 904.831,387.995 904.5,418.5C 925.833,418.5 947.167,418.5 968.5,418.5C 968.5,385.5 968.5,352.5 968.5,319.5 Z"/></g>
<g><path style="opacity:0.078" fill="rgb(110, 110, 110)" d="M 349.5,436.5 C 349.833,436.5 350.167,436.5 350.5,436.5C 376.167,436.5 401.833,436.5 427.5,436.5C 427.5,456.833 427.5,477.167 427.5,497.5C 401.833,497.5 376.167,497.5 350.5,497.5C 350.167,497.5 349.833,497.5 349.5,497.5C 374.995,496.502 400.661,496.169 426.5,496.5C 426.5,476.833 426.5,457.167 426.5,437.5C 400.661,437.831 374.995,437.498 349.5,436.5 Z"/></g>
<g><path style="opacity:0.522" fill="rgb(110, 110, 110)" d="M 349.5,497.5 C 349.833,497.5 350.167,497.5 350.5,497.5C 350.5,540.5 350.5,583.5 350.5,626.5C 377.672,626.169 404.672,626.502 431.5,627.5C 404.167,627.5 376.833,627.5 349.5,627.5C 349.5,584.167 349.5,540.833 349.5,497.5 Z"/></g>
<g><path style="opacity:0.086" fill="rgb(110, 110, 110)" d="M 905.5,510.5 C 926.994,509.503 948.66,509.169 970.5,509.5C 970.832,548.004 970.499,586.337 969.5,624.5C 969.5,586.5 969.5,548.5 969.5,510.5C 948.167,510.5 926.833,510.5 905.5,510.5 Z"/></g>
<g><path style="opacity:0.733" fill="rgb(110, 110, 110)" d="M 627.5,510.5 C 626.415,512.587 624.749,513.92 622.5,514.5C 623.585,512.413 625.251,511.08 627.5,510.5 Z"/></g>
<g><path style="opacity:0.808" fill="rgb(110, 110, 110)" d="M 953.5,667.5 C 952.167,670.833 949.833,673.167 946.5,674.5C 948.5,671.833 950.833,669.5 953.5,667.5 Z"/></g>
<g><path style="opacity:0.522" fill="rgb(110, 110, 110)" d="M 617.5,793.5 C 605.167,793.5 592.833,793.5 580.5,793.5C 580.5,836.833 580.5,880.167 580.5,923.5C 579.501,880.003 579.168,836.337 579.5,792.5C 592.344,792.171 605.011,792.505 617.5,793.5 Z"/></g>
<g><path style="opacity:0.11" fill="rgb(110, 110, 110)" d="M 847.5,793.5 C 813.167,793.5 778.833,793.5 744.5,793.5C 744.5,836.833 744.5,880.167 744.5,923.5C 743.501,880.003 743.168,836.337 743.5,792.5C 778.337,792.168 813.004,792.502 847.5,793.5 Z"/></g>
<g><path style="opacity:0.463" fill="rgb(110, 110, 110)" d="M 494.5,835.5 C 493.833,835.5 493.167,835.5 492.5,835.5C 493.167,832.833 493.833,832.833 494.5,835.5 Z"/></g>
<g><path style="opacity:0.989" fill="rgb(110, 110, 110)" d="M 492.5,835.5 C 493.167,835.5 493.833,835.5 494.5,835.5C 499.228,846.684 503.561,858.017 507.5,869.5C 503.012,870.166 498.346,870.499 493.5,870.5C 488.449,870.493 483.783,869.827 479.5,868.5C 483.559,857.384 487.892,846.384 492.5,835.5 Z"/></g>
<g><path style="opacity:0.078" fill="rgb(110, 110, 110)" d="M 683.5,923.5 C 682.833,898.5 682.167,873.5 681.5,848.5C 681.783,847.711 682.283,847.044 683,846.5C 683.5,872.165 683.667,897.831 683.5,923.5 Z"/></g>
<g><path style="opacity:0.455" fill="rgb(110, 110, 110)" d="M 624.5,862.5 C 625.906,862.973 626.573,863.973 626.5,865.5C 625.094,865.027 624.427,864.027 624.5,862.5 Z"/></g>
<g><path style="opacity:0.278" fill="rgb(110, 110, 110)" d="M 479.5,868.5 C 483.783,869.827 488.449,870.493 493.5,870.5C 498.346,870.499 503.012,870.166 507.5,869.5C 508.043,869.56 508.376,869.893 508.5,870.5C 498.522,871.499 488.522,871.832 478.5,871.5C 478.263,870.209 478.596,869.209 479.5,868.5 Z"/></g>
<g><path style="opacity:0.522" fill="rgb(110, 110, 110)" d="M 635.5,879.5 C 636.906,879.973 637.573,880.973 637.5,882.5C 636.094,882.027 635.427,881.027 635.5,879.5 Z"/></g>
<g><path style="opacity:0.455" fill="rgb(110, 110, 110)" d="M 659.5,882.5 C 659.573,884.027 658.906,885.027 657.5,885.5C 657.427,883.973 658.094,882.973 659.5,882.5 Z"/></g>
<g><path style="opacity:0.11" fill="rgb(110, 110, 110)" d="M 778.5,893.5 C 801.833,893.5 825.167,893.5 848.5,893.5C 848.827,903.681 848.494,913.681 847.5,923.5C 847.5,913.833 847.5,904.167 847.5,894.5C 824.327,894.831 801.327,894.498 778.5,893.5 Z"/></g>
<g><path style="opacity:0.522" fill="rgb(110, 110, 110)" d="M 644.5,893.5 C 645.906,893.973 646.573,894.973 646.5,896.5C 645.094,896.027 644.427,895.027 644.5,893.5 Z"/></g>
<g><path style="opacity:0.524" fill="rgb(110, 110, 110)" d="M 814.5,1079.5 C 690.167,1078.17 565.833,1078.17 441.5,1079.5C 440.325,1079.72 439.325,1079.39 438.5,1078.5C 564.5,1077.17 690.5,1077.17 816.5,1078.5C 816.043,1079.3 815.376,1079.63 814.5,1079.5 Z"/></g>
</svg>
